<svg width="80" height="80" viewBox="0 0 80 80" fill="none" xmlns="http://www.w3.org/2000/svg">
<rect width="80" height="80" fill="#E2E2E2"/>
<g clip-path="url(#clip0_108_17)">
<path d="M40 61.6666C28.0335 61.6666 18.3333 51.9665 18.3333 40C18.3333 28.0335 28.0335 18.3333 40 18.3333C51.9665 18.3333 61.6667 28.0335 61.6667 40C61.6667 51.9665 51.9665 61.6666 40 61.6666ZM29.1948 53.5546C32.2618 56.0067 36.0733 57.3396 40 57.3333C44.2683 57.3333 48.1748 55.7906 51.1952 53.234C49.7841 51.7861 48.0969 50.6359 46.2336 49.8514C44.3702 49.0669 42.3684 48.664 40.3467 48.6666C38.2506 48.6642 36.1769 49.0975 34.2572 49.9389C32.3374 50.7804 30.6135 52.0117 29.1948 53.5546ZM26.168 50.4433C27.989 48.5108 30.1864 46.9717 32.625 45.9209C35.0635 44.87 37.6914 44.3298 40.3467 44.3333C42.9069 44.33 45.4426 44.8324 47.8081 45.8118C50.1736 46.7912 52.3224 48.2282 54.131 50.0403C55.9858 47.4297 57.0812 44.3564 57.2955 41.1611C57.5099 37.9659 56.8349 34.7737 55.3454 31.9388C53.8559 29.1039 51.6101 26.737 48.8573 25.1008C46.1044 23.4646 42.9521 22.623 39.75 22.6694C36.5479 22.7158 33.4213 23.6483 30.717 25.3636C28.0127 27.0789 25.8364 29.5099 24.4297 32.3867C23.0229 35.2636 22.4407 38.474 22.7475 41.6617C23.0544 44.8494 24.2383 47.8876 26.168 50.4433ZM40 42.1666C37.7015 42.1666 35.497 41.2536 33.8717 39.6282C32.2464 38.0029 31.3333 35.7985 31.3333 33.5C31.3333 31.2014 32.2464 28.997 33.8717 27.3717C35.497 25.7464 37.7015 24.8333 40 24.8333C42.2985 24.8333 44.5029 25.7464 46.1283 27.3717C47.7536 28.997 48.6667 31.2014 48.6667 33.5C48.6667 35.7985 47.7536 38.0029 46.1283 39.6282C44.5029 41.2536 42.2985 42.1666 40 42.1666ZM40 37.8333C41.1493 37.8333 42.2515 37.3768 43.0641 36.5641C43.8768 35.7514 44.3333 34.6492 44.3333 33.5C44.3333 32.3507 43.8768 31.2485 43.0641 30.4358C42.2515 29.6232 41.1493 29.1666 40 29.1666C38.8507 29.1666 37.7485 29.6232 36.9359 30.4358C36.1232 31.2485 35.6667 32.3507 35.6667 33.5C35.6667 34.6492 36.1232 35.7514 36.9359 36.5641C37.7485 37.3768 38.8507 37.8333 40 37.8333Z" fill="#717171"/>
</g>
<defs>
<clipPath id="clip0_108_17">
<rect width="52" height="52" fill="white" transform="translate(14 14)"/>
</clipPath>
</defs>
</svg>
