<svg width="456" height="456" viewBox="0 0 456 456" fill="none" xmlns="http://www.w3.org/2000/svg">
<path d="M98.271 349.231H88.949C88.7787 348.025 88.4311 346.954 87.9061 346.018C87.3811 345.067 86.7072 344.258 85.8842 343.591C85.0613 342.924 84.1106 342.414 83.0323 342.059C81.9681 341.704 80.8117 341.527 79.5631 341.527C77.3071 341.527 75.342 342.087 73.6677 343.208C71.9934 344.315 70.6951 345.933 69.7729 348.061C68.8506 350.175 68.3895 352.743 68.3895 355.765C68.3895 358.873 68.8506 361.483 69.7729 363.598C70.7093 365.712 72.0147 367.308 73.689 368.386C75.3632 369.465 77.3 370.004 79.4993 370.004C80.7337 370.004 81.8759 369.841 82.9259 369.514C83.99 369.188 84.9336 368.713 85.7565 368.088C86.5795 367.45 87.2605 366.677 87.7997 365.768C88.3531 364.86 88.7362 363.825 88.949 362.661L98.271 362.704C98.0298 364.704 97.4268 366.634 96.462 368.493C95.5113 370.337 94.2272 371.99 92.6097 373.452C91.0064 374.899 89.0909 376.048 86.8633 376.9C84.6498 377.737 82.1455 378.155 79.3503 378.155C75.4626 378.155 71.9863 377.276 68.9215 375.516C65.8709 373.757 63.4589 371.21 61.6853 367.875C59.9258 364.541 59.0461 360.504 59.0461 355.765C59.0461 351.012 59.94 346.968 61.7278 343.634C63.5156 340.3 65.9419 337.76 69.0067 336.015C72.0714 334.255 75.5193 333.375 79.3503 333.375C81.8759 333.375 84.217 333.73 86.3737 334.44C88.5446 335.149 90.4672 336.185 92.1415 337.547C93.8158 338.895 95.1779 340.548 96.2279 342.506C97.292 344.464 97.9731 346.706 98.271 349.231Z" fill="white"/>
<path d="M144.934 355.765C144.934 360.519 144.033 364.562 142.231 367.897C140.444 371.231 138.003 373.778 134.91 375.537C131.831 377.283 128.369 378.155 124.524 378.155C120.65 378.155 117.174 377.276 114.095 375.516C111.016 373.757 108.583 371.21 106.795 367.875C105.007 364.541 104.113 360.504 104.113 355.765C104.113 351.012 105.007 346.968 106.795 343.634C108.583 340.3 111.016 337.76 114.095 336.015C117.174 334.255 120.65 333.375 124.524 333.375C128.369 333.375 131.831 334.255 134.91 336.015C138.003 337.76 140.444 340.3 142.231 343.634C144.033 346.968 144.934 351.012 144.934 355.765ZM135.591 355.765C135.591 352.686 135.13 350.09 134.208 347.976C133.3 345.862 132.016 344.258 130.355 343.166C128.695 342.073 126.751 341.527 124.524 341.527C122.296 341.527 120.352 342.073 118.692 343.166C117.032 344.258 115.741 345.862 114.819 347.976C113.911 350.09 113.457 352.686 113.457 355.765C113.457 358.844 113.911 361.441 114.819 363.555C115.741 365.669 117.032 367.272 118.692 368.365C120.352 369.458 122.296 370.004 124.524 370.004C126.751 370.004 128.695 369.458 130.355 368.365C132.016 367.272 133.3 365.669 134.208 363.555C135.13 361.441 135.591 358.844 135.591 355.765Z" fill="white"/>
<path d="M151.761 377.559V333.971H168.958C172.25 333.971 175.059 334.56 177.386 335.738C179.727 336.901 181.508 338.554 182.728 340.697C183.962 342.825 184.58 345.329 184.58 348.21C184.58 351.104 183.955 353.594 182.707 355.68C181.458 357.752 179.649 359.341 177.28 360.448C174.924 361.554 172.072 362.108 168.724 362.108H157.209V354.701H167.234C168.993 354.701 170.455 354.46 171.618 353.978C172.782 353.495 173.647 352.772 174.215 351.807C174.796 350.842 175.087 349.643 175.087 348.21C175.087 346.763 174.796 345.542 174.215 344.549C173.647 343.556 172.775 342.804 171.597 342.293C170.433 341.768 168.965 341.506 167.191 341.506H160.977V377.559H151.761ZM175.3 357.723L186.133 377.559H175.96L165.361 357.723H175.3Z" fill="white"/>
<path d="M214.738 346.507C214.568 344.79 213.837 343.457 212.546 342.506C211.255 341.555 209.502 341.08 207.289 341.08C205.785 341.08 204.515 341.293 203.479 341.718C202.443 342.13 201.649 342.705 201.095 343.442C200.556 344.18 200.287 345.017 200.287 345.954C200.258 346.734 200.421 347.415 200.776 347.997C201.145 348.579 201.649 349.082 202.287 349.508C202.926 349.92 203.664 350.281 204.501 350.594C205.338 350.891 206.232 351.147 207.182 351.36L211.098 352.296C213 352.722 214.745 353.289 216.334 353.999C217.923 354.708 219.3 355.581 220.463 356.617C221.627 357.652 222.528 358.873 223.166 360.277C223.819 361.682 224.152 363.292 224.166 365.109C224.152 367.776 223.471 370.089 222.123 372.047C220.789 373.991 218.86 375.502 216.334 376.58C213.823 377.644 210.793 378.177 207.246 378.177C203.727 378.177 200.663 377.637 198.052 376.559C195.455 375.481 193.426 373.884 191.965 371.77C190.518 369.642 189.759 367.01 189.688 363.874H198.605C198.705 365.336 199.123 366.556 199.861 367.535C200.613 368.5 201.613 369.23 202.862 369.727C204.125 370.21 205.551 370.451 207.14 370.451C208.701 370.451 210.056 370.224 211.205 369.77C212.368 369.316 213.269 368.684 213.908 367.875C214.546 367.067 214.866 366.137 214.866 365.087C214.866 364.108 214.575 363.285 213.993 362.619C213.425 361.952 212.588 361.384 211.482 360.916C210.389 360.448 209.048 360.022 207.459 359.639L202.713 358.447C199.038 357.553 196.136 356.156 194.008 354.254C191.88 352.353 190.823 349.792 190.837 346.571C190.823 343.932 191.525 341.626 192.944 339.654C194.377 337.682 196.342 336.142 198.839 335.036C201.337 333.929 204.174 333.375 207.353 333.375C210.588 333.375 213.411 333.929 215.823 335.036C218.25 336.142 220.137 337.682 221.485 339.654C222.833 341.626 223.528 343.911 223.57 346.507H214.738Z" fill="white"/>
<path d="M239.581 333.971V377.559H230.365V333.971H239.581Z" fill="white"/>
<path d="M248.653 377.559V333.971H263.891C266.928 333.971 269.432 334.496 271.404 335.546C273.377 336.582 274.845 337.98 275.81 339.739C276.775 341.484 277.257 343.421 277.257 345.549C277.257 347.422 276.924 348.969 276.257 350.189C275.604 351.409 274.739 352.374 273.66 353.084C272.596 353.793 271.44 354.318 270.191 354.659V355.084C271.525 355.169 272.866 355.638 274.214 356.489C275.562 357.34 276.69 358.561 277.598 360.15C278.506 361.739 278.96 363.683 278.96 365.981C278.96 368.166 278.463 370.131 277.47 371.877C276.477 373.622 274.909 375.005 272.767 376.027C270.624 377.049 267.836 377.559 264.402 377.559H248.653ZM253.931 372.877H264.402C267.85 372.877 270.298 372.21 271.745 370.876C273.206 369.528 273.937 367.897 273.937 365.981C273.937 364.506 273.561 363.144 272.809 361.895C272.057 360.632 270.986 359.625 269.595 358.873C268.205 358.106 266.559 357.723 264.658 357.723H253.931V372.877ZM253.931 353.126H263.721C265.31 353.126 266.743 352.814 268.02 352.19C269.312 351.565 270.333 350.686 271.085 349.551C271.851 348.416 272.234 347.082 272.234 345.549C272.234 343.634 271.568 342.009 270.234 340.676C268.9 339.328 266.786 338.654 263.891 338.654H253.931V353.126Z" fill="white"/>
<path d="M324.41 355.765C324.41 360.363 323.58 364.335 321.92 367.684C320.26 371.032 317.983 373.615 315.088 375.431C312.194 377.247 308.888 378.155 305.17 378.155C301.453 378.155 298.147 377.247 295.252 375.431C292.358 373.615 290.08 371.032 288.42 367.684C286.76 364.335 285.93 360.363 285.93 355.765C285.93 351.168 286.76 347.195 288.42 343.847C290.08 340.498 292.358 337.916 295.252 336.1C298.147 334.284 301.453 333.375 305.17 333.375C308.888 333.375 312.194 334.284 315.088 336.1C317.983 337.916 320.26 340.498 321.92 343.847C323.58 347.195 324.41 351.168 324.41 355.765ZM319.302 355.765C319.302 351.991 318.671 348.806 317.408 346.209C316.159 343.613 314.464 341.647 312.321 340.314C310.193 338.98 307.809 338.313 305.17 338.313C302.531 338.313 300.14 338.98 297.998 340.314C295.869 341.647 294.174 343.613 292.911 346.209C291.662 348.806 291.038 351.991 291.038 355.765C291.038 359.54 291.662 362.725 292.911 365.321C294.174 367.918 295.869 369.883 297.998 371.217C300.14 372.551 302.531 373.218 305.17 373.218C307.809 373.218 310.193 372.551 312.321 371.217C314.464 369.883 316.159 367.918 317.408 365.321C318.671 362.725 319.302 359.54 319.302 355.765Z" fill="white"/>
<path d="M333.024 377.559H327.491L343.496 333.971H348.944L364.949 377.559H359.416L346.39 340.867H346.05L333.024 377.559ZM335.068 360.533H357.372V365.215H335.068V360.533Z" fill="white"/>
<path d="M364.263 338.654V333.971H396.954V338.654H383.247V377.559H377.969V338.654H364.263Z" fill="white"/>
<path d="M62.2958 286.418C115.465 285.471 256.233 268.983 393.947 210.612C391.421 220.509 380.808 255.527 358.571 316.425H77.1411C75.4566 315.898 71.6452 313.708 69.8764 309.16C69.9219 307.375 69.9179 303.206 69.5379 300.812C67.0379 296.601 62.5449 288.696 62.1874 286.823C62.1375 286.562 62.1681 286.418 62.2958 286.418Z" fill="white"/>
<path fill-rule="evenodd" clip-rule="evenodd" d="M237.051 261.227C239.18 200.433 242.968 79.0859 241.165 77.8235C224.47 124.571 195.601 206.676 182.203 248.622C186.583 247.693 191.393 246.842 196.627 246.131C222.007 242.684 234.068 254.623 237.051 261.227ZM237.043 261.472L200.673 272.391C213.118 269.233 227.415 264.758 237.041 261.506C237.042 261.495 237.042 261.483 237.043 261.472Z" fill="white"/>
</svg>
