<svg width="357" height="90" viewBox="0 0 357 90" fill="none" xmlns="http://www.w3.org/2000/svg">
<path d="M158.65 48.4139H152.925C152.82 47.6732 152.607 47.0153 152.284 46.4401C151.962 45.8563 151.548 45.3595 151.042 44.95C150.537 44.5404 149.953 44.2267 149.291 44.0088C148.637 43.791 147.927 43.682 147.16 43.682C145.775 43.682 144.568 44.0262 143.539 44.7147C142.511 45.3944 141.714 46.3878 141.147 47.695C140.581 48.9934 140.298 50.5707 140.298 52.4268C140.298 54.3353 140.581 55.9387 141.147 57.2371C141.722 58.5356 142.524 59.5159 143.552 60.1782C144.581 60.8405 145.77 61.1717 147.121 61.1717C147.879 61.1717 148.581 61.0714 149.225 60.871C149.879 60.6706 150.459 60.3787 150.964 59.9952C151.469 59.6031 151.888 59.1282 152.219 58.5704C152.559 58.0127 152.794 57.3766 152.925 56.662L158.65 56.6881C158.502 57.9169 158.131 59.102 157.539 60.2436C156.955 61.3764 156.166 62.3917 155.173 63.2892C154.188 64.1781 153.012 64.884 151.644 65.4068C150.284 65.921 148.746 66.178 147.029 66.178C144.642 66.178 142.507 65.6377 140.624 64.5572C138.751 63.4766 137.269 61.9124 136.18 59.8645C135.1 57.8166 134.559 55.3374 134.559 52.4268C134.559 49.5076 135.108 47.024 136.206 44.9761C137.304 42.9282 138.794 41.3684 140.677 40.2965C142.559 39.2159 144.677 38.6757 147.029 38.6757C148.581 38.6757 150.018 38.8935 151.343 39.3292C152.676 39.7649 153.857 40.4011 154.885 41.2377C155.914 42.0655 156.75 43.0807 157.395 44.2833C158.049 45.4859 158.467 46.8628 158.65 48.4139Z" fill="#002C5F"/>
<path d="M187.309 52.4268C187.309 55.3461 186.756 57.8297 185.649 59.8776C184.551 61.9254 183.052 63.4897 181.153 64.5702C179.262 65.6421 177.135 66.178 174.774 66.178C172.395 66.178 170.26 65.6377 168.369 64.5572C166.478 63.4766 164.983 61.9124 163.885 59.8645C162.787 57.8166 162.238 55.3374 162.238 52.4268C162.238 49.5076 162.787 47.024 163.885 44.9761C164.983 42.9282 166.478 41.3684 168.369 40.2965C170.26 39.2159 172.395 38.6757 174.774 38.6757C177.135 38.6757 179.262 39.2159 181.153 40.2965C183.052 41.3684 184.551 42.9282 185.649 44.9761C186.756 47.024 187.309 49.5076 187.309 52.4268ZM181.571 52.4268C181.571 50.5358 181.288 48.9411 180.721 47.6427C180.163 46.3443 179.375 45.3595 178.355 44.6885C177.336 44.0175 176.142 43.682 174.774 43.682C173.405 43.682 172.212 44.0175 171.192 44.6885C170.172 45.3595 169.379 46.3443 168.813 47.6427C168.255 48.9411 167.976 50.5358 167.976 52.4268C167.976 54.3179 168.255 55.9126 168.813 57.211C169.379 58.5094 170.172 59.4942 171.192 60.1652C172.212 60.8362 173.405 61.1717 174.774 61.1717C176.142 61.1717 177.336 60.8362 178.355 60.1652C179.375 59.4942 180.163 58.5094 180.721 57.211C181.288 55.9126 181.571 54.3179 181.571 52.4268Z" fill="#002C5F"/>
<path d="M191.502 65.812V39.0417H202.064C204.085 39.0417 205.811 39.4033 207.24 40.1266C208.678 40.8412 209.771 41.8564 210.521 43.1722C211.279 44.4794 211.658 46.0175 211.658 47.7865C211.658 49.5642 211.275 51.0936 210.508 52.3746C209.741 53.6468 208.63 54.6229 207.175 55.3026C205.728 55.9823 203.976 56.3221 201.92 56.3221H194.848V51.7733H201.005C202.085 51.7733 202.983 51.6251 203.698 51.3288C204.412 51.0326 204.944 50.5881 205.292 49.9956C205.65 49.403 205.828 48.6666 205.828 47.7865C205.828 46.8976 205.65 46.1482 205.292 45.5382C204.944 44.9282 204.408 44.4663 203.684 44.1526C202.97 43.8302 202.068 43.669 200.979 43.669H197.162V65.812H191.502ZM205.959 53.6294L212.612 65.812H206.364L199.855 53.6294H205.959Z" fill="#002C5F"/>
<path d="M230.18 46.7408C230.076 45.6863 229.627 44.8672 228.834 44.2833C228.041 43.6995 226.965 43.4075 225.605 43.4075C224.682 43.4075 223.902 43.5382 223.266 43.7997C222.629 44.0524 222.141 44.4053 221.802 44.8585C221.47 45.3116 221.305 45.8258 221.305 46.4009C221.287 46.8802 221.388 47.2985 221.605 47.6558C221.832 48.013 222.141 48.3224 222.534 48.5838C222.926 48.8365 223.379 49.0588 223.893 49.2505C224.407 49.4335 224.956 49.5903 225.54 49.7211L227.945 50.2962C229.113 50.5576 230.185 50.9062 231.161 51.3419C232.137 51.7776 232.982 52.3136 233.697 52.9497C234.411 53.5858 234.964 54.3353 235.357 55.198C235.757 56.0607 235.962 57.0498 235.971 58.1652C235.962 59.8035 235.544 61.2239 234.716 62.4265C233.897 63.6204 232.712 64.5485 231.161 65.2107C229.618 65.8643 227.758 66.1911 225.579 66.1911C223.418 66.1911 221.536 65.86 219.932 65.1977C218.338 64.5354 217.091 63.555 216.194 62.2566C215.305 60.9494 214.839 59.3329 214.795 57.4071H220.272C220.333 58.3046 220.59 59.0541 221.043 59.6554C221.505 60.2479 222.12 60.6967 222.886 61.0017C223.662 61.298 224.538 61.4462 225.514 61.4462C226.472 61.4462 227.305 61.3067 228.01 61.0279C228.725 60.749 229.278 60.3612 229.671 59.8645C230.063 59.3678 230.259 58.797 230.259 58.1521C230.259 57.5509 230.08 57.0454 229.723 56.6359C229.374 56.2263 228.86 55.8777 228.18 55.5901C227.509 55.3026 226.686 55.0411 225.71 54.8059L222.795 54.0738C220.538 53.5248 218.756 52.6665 217.449 51.4988C216.142 50.3311 215.492 48.7581 215.501 46.78C215.492 45.1591 215.924 43.743 216.795 42.5317C217.675 41.3205 218.882 40.375 220.416 39.6952C221.95 39.0155 223.693 38.6757 225.645 38.6757C227.631 38.6757 229.366 39.0155 230.847 39.6952C232.337 40.375 233.496 41.3205 234.324 42.5317C235.152 43.743 235.579 45.146 235.605 46.7408H230.18Z" fill="#002C5F"/>
<path d="M245.438 39.0417V65.812H239.778V39.0417H245.438Z" fill="#002C5F"/>
<path d="M251.01 65.812V39.0417H260.369C262.234 39.0417 263.772 39.3641 264.983 40.009C266.194 40.6451 267.096 41.5035 267.689 42.584C268.281 43.6559 268.578 44.8454 268.578 46.1525C268.578 47.3028 268.373 48.2527 267.963 49.0021C267.563 49.7516 267.031 50.3441 266.369 50.7798C265.715 51.2156 265.005 51.538 264.238 51.7471V52.0086C265.057 52.0608 265.881 52.3484 266.709 52.8713C267.536 53.3941 268.229 54.1436 268.787 55.1196C269.345 56.0956 269.623 57.2894 269.623 58.7011C269.623 60.0432 269.318 61.2501 268.708 62.3219C268.098 63.3938 267.136 64.2435 265.82 64.8709C264.504 65.4983 262.791 65.812 260.683 65.812H251.01ZM254.251 62.9363H260.683C262.8 62.9363 264.303 62.5267 265.192 61.7076C266.09 60.8797 266.539 59.8776 266.539 58.7011C266.539 57.7949 266.308 56.9583 265.846 56.1914C265.384 55.4159 264.726 54.7971 263.872 54.3353C263.018 53.8647 262.007 53.6294 260.839 53.6294H254.251V62.9363ZM254.251 50.806H260.264C261.24 50.806 262.12 50.6143 262.905 50.2308C263.698 49.8474 264.325 49.3071 264.787 48.61C265.258 47.9128 265.493 47.0937 265.493 46.1525C265.493 44.9761 265.083 43.9783 264.264 43.1592C263.445 42.3313 262.147 41.9174 260.369 41.9174H254.251V50.806Z" fill="#002C5F"/>
<path d="M297.538 52.4268C297.538 55.2503 297.028 57.6903 296.008 59.7469C294.989 61.8034 293.59 63.3894 291.812 64.5049C290.035 65.6203 288.004 66.178 285.721 66.178C283.438 66.178 281.407 65.6203 279.63 64.5049C277.852 63.3894 276.453 61.8034 275.434 59.7469C274.414 57.6903 273.904 55.2503 273.904 52.4268C273.904 49.6034 274.414 47.1634 275.434 45.1068C276.453 43.0502 277.852 41.4642 279.63 40.3488C281.407 39.2334 283.438 38.6757 285.721 38.6757C288.004 38.6757 290.035 39.2334 291.812 40.3488C293.59 41.4642 294.989 43.0502 296.008 45.1068C297.028 47.1634 297.538 49.6034 297.538 52.4268ZM294.4 52.4268C294.4 50.1088 294.013 48.1525 293.237 46.5578C292.47 44.963 291.429 43.7561 290.113 42.937C288.806 42.1178 287.342 41.7082 285.721 41.7082C284.1 41.7082 282.632 42.1178 281.316 42.937C280.009 43.7561 278.967 44.963 278.192 46.5578C277.425 48.1525 277.042 50.1088 277.042 52.4268C277.042 54.7449 277.425 56.7012 278.192 58.2959C278.967 59.8907 280.009 61.0976 281.316 61.9167C282.632 62.7359 284.1 63.1454 285.721 63.1454C287.342 63.1454 288.806 62.7359 290.113 61.9167C291.429 61.0976 292.47 59.8907 293.237 58.2959C294.013 56.7012 294.4 54.7449 294.4 52.4268Z" fill="#002C5F"/>
<path d="M302.828 65.812H299.43L309.259 39.0417H312.606L322.435 65.812H319.037L311.037 43.2768H310.828L302.828 65.812ZM304.083 55.3549H317.782V58.2306H304.083V55.3549Z" fill="#002C5F"/>
<path d="M322.014 41.9174V39.0417H342.092V41.9174H333.674V65.812H330.432V41.9174H322.014Z" fill="#002C5F"/>
<path d="M16.1793 73.5C33.1494 73.1975 78.0782 67.9351 122.033 49.3049C121.226 52.4637 117.839 63.6405 110.742 83.0772H20.9175C20.3798 82.9092 19.1633 82.2102 18.5988 80.7585C18.6133 80.1887 18.612 78.8582 18.4907 78.094C17.6928 76.7501 16.2588 74.2269 16.1447 73.6293C16.1287 73.5459 16.1385 73.5 16.1793 73.5Z" fill="#002C5F"/>
<path fill-rule="evenodd" clip-rule="evenodd" d="M71.9559 65.4598C72.6354 46.0562 73.8445 7.32572 73.2689 6.92279C67.9402 21.8431 58.7264 48.0486 54.4501 61.4367C55.848 61.14 57.3832 60.8684 59.0535 60.6416C67.1543 59.5414 71.0039 63.3521 71.9559 65.4598ZM71.9532 65.538L60.3451 69.023C64.3174 68.0151 68.8805 66.5867 71.9528 65.5488C71.9529 65.5452 71.9531 65.5416 71.9532 65.538Z" fill="#002C5F"/>
</svg>
